<?xml version="1.0" encoding="UTF-8"?>
<svg xmlns="http://www.w3.org/2000/svg" xmlns:xlink="http://www.w3.org/1999/xlink" width="20px" height="31px" viewBox="0 0 20 30" version="1.1">
<g id="surface1">
<path style=" stroke:none;fill-rule:evenodd;fill:rgb(0%,0%,0%);fill-opacity:1;" d="M 2.398438 6.59375 L 2.941406 6.59375 C 2.941406 6.628906 2.949219 6.664062 2.957031 6.703125 L 3.558594 8.921875 C 3.726562 9.554688 4.015625 10.15625 4.453125 10.578125 C 4.847656 10.964844 5.359375 11.207031 5.996094 11.207031 L 8.390625 11.207031 L 8.390625 12.453125 C 8.390625 12.652344 8.558594 12.8125 8.753906 12.8125 L 11.535156 12.8125 C 11.738281 12.8125 11.898438 12.652344 11.898438 12.453125 L 11.898438 11.207031 L 14.40625 11.207031 C 15.050781 11.207031 15.582031 10.960938 15.988281 10.5625 C 16.425781 10.136719 16.710938 9.539062 16.851562 8.898438 L 17.332031 6.707031 C 17.339844 6.667969 17.34375 6.632812 17.34375 6.59375 L 17.601562 6.59375 C 18.914062 6.59375 19.988281 7.640625 19.988281 8.917969 L 19.988281 25.769531 C 19.988281 27.042969 18.925781 28.085938 17.628906 28.097656 L 17.628906 29.015625 C 17.628906 29.558594 17.175781 30 16.621094 30 C 16.0625 30 15.609375 29.558594 15.609375 29.015625 L 15.609375 28.097656 L 4.390625 28.097656 L 4.390625 29.015625 C 4.390625 29.558594 3.9375 30 3.378906 30 C 2.824219 30 2.371094 29.558594 2.371094 29.015625 L 2.371094 28.097656 C 1.070312 28.085938 0.0117188 27.042969 0.0117188 25.769531 L 0.0117188 8.917969 C 0.0117188 7.640625 1.085938 6.59375 2.398438 6.59375 Z M 4.160156 24.515625 C 3.917969 24.515625 3.71875 24.320312 3.71875 24.085938 C 3.71875 23.847656 3.917969 23.652344 4.160156 23.652344 L 15.90625 23.652344 C 16.148438 23.652344 16.347656 23.847656 16.347656 24.085938 C 16.347656 24.320312 16.148438 24.515625 15.90625 24.515625 Z M 4.160156 20.355469 C 3.917969 20.355469 3.71875 20.160156 3.71875 19.925781 C 3.71875 19.6875 3.917969 19.492188 4.160156 19.492188 L 15.90625 19.492188 C 16.148438 19.492188 16.347656 19.6875 16.347656 19.925781 C 16.347656 20.160156 16.148438 20.355469 15.90625 20.355469 Z M 4.160156 16.195312 C 3.917969 16.195312 3.71875 16 3.71875 15.765625 C 3.71875 15.527344 3.917969 15.332031 4.160156 15.332031 L 15.90625 15.332031 C 16.148438 15.332031 16.347656 15.527344 16.347656 15.765625 C 16.347656 16 16.148438 16.195312 15.90625 16.195312 Z M 16.359375 7.023438 L 3.953125 7.023438 L 4.40625 8.703125 C 4.542969 9.199219 4.757812 9.65625 5.074219 9.964844 C 5.3125 10.199219 5.617188 10.34375 5.996094 10.34375 L 14.40625 10.34375 C 14.796875 10.34375 15.117188 10.191406 15.363281 9.949219 C 15.675781 9.648438 15.886719 9.203125 15.988281 8.71875 Z M 3.984375 0 L 16.105469 0 C 16.246094 0 16.363281 0.113281 16.363281 0.25 L 16.363281 1.847656 C 16.363281 1.988281 16.246094 2.097656 16.105469 2.097656 L 14.285156 2.097656 L 14.285156 6.125 L 13.214844 6.125 L 13.214844 2.097656 L 6.992188 2.097656 L 6.992188 6.121094 L 5.921875 6.121094 L 5.921875 2.097656 L 3.984375 2.097656 C 3.84375 2.097656 3.730469 1.984375 3.730469 1.847656 L 3.730469 0.25 C 3.730469 0.113281 3.84375 0 3.984375 0 Z M 3.984375 0 "/>
</g>
</svg>
