<?xml version="1.0" encoding="UTF-8"?>
<svg xmlns="http://www.w3.org/2000/svg" xmlns:xlink="http://www.w3.org/1999/xlink" width="20px" height="23px" viewBox="0 0 20 23" version="1.1">
<g id="surface1">
<path style=" stroke:none;fill-rule:evenodd;fill:rgb(0%,0%,0%);fill-opacity:1;" d="M 10.011719 0 C 12.261719 0 14.082031 1.769531 14.082031 3.957031 C 14.082031 6.140625 12.261719 7.914062 10.011719 7.914062 C 7.761719 7.914062 5.9375 6.144531 5.9375 3.957031 C 5.9375 1.769531 7.761719 0 10.011719 0 Z M 14.222656 12.117188 L 17.414062 14.496094 C 18.941406 15.632812 20.988281 13.621094 19.464844 12.484375 L 14.222656 8.582031 L 14.222656 8.5625 L 5.796875 8.5625 L 5.796875 8.566406 L 5.792969 8.5625 L 0.535156 12.5 C -0.988281 13.644531 1.066406 15.65625 2.585938 14.511719 L 5.796875 12.109375 L 5.796875 17.476562 L 6.234375 17.476562 L 6.234375 21.578125 C 6.234375 22.359375 6.886719 23.003906 7.683594 23.003906 C 8.480469 23.003906 9.132812 22.359375 9.132812 21.578125 L 9.132812 17.476562 L 10.886719 17.476562 L 10.886719 21.578125 C 10.886719 22.359375 11.542969 23 12.339844 23 C 13.136719 23 13.785156 22.359375 13.785156 21.578125 L 13.785156 17.476562 L 14.222656 17.476562 Z M 14.222656 12.117188 "/>
</g>
</svg>
